<svg xmlns="http://www.w3.org/2000/svg" viewBox="0 0 64 64" role="img" aria-label="Obedové menu">
  <rect width="64" height="64" rx="16" fill="#064e3b"/>
  <circle cx="32" cy="32" r="18" fill="#ffffff"/>
  <circle cx="32" cy="32" r="12" fill="none" stroke="#064e3b" stroke-width="3"/>
  <path d="M28 38c4-4-4-7 0-13" fill="none" stroke="#064e3b" stroke-width="3.5" stroke-linecap="round"/>
  <path d="M36 38c4-5-5-8 0-15" fill="none" stroke="#064e3b" stroke-width="3.5" stroke-linecap="round"/>
  <path d="M14 17v16M18 17v16M22 17v16M14 25h8M18 33v15" fill="none" stroke="#ffffff" stroke-width="3" stroke-linecap="round"/>
  <path d="M48 17c4 0 6 4 6 9s-2 9-6 9-6-4-6-9 2-9 6-9Zm0 18v13" fill="none" stroke="#ffffff" stroke-width="3" stroke-linecap="round"/>
</svg>
